<svg width="210" height="40" viewBox="0 0 210 40" fill="none" xmlns="http://www.w3.org/2000/svg">
<path d="M107.485 31.546C104.629 31.546 102.025 30.874 99.6735 29.53C97.3495 28.158 95.5155 26.31 94.1715 23.986C92.8275 21.662 92.1555 19.114 92.1555 16.342C92.1555 13.542 92.7995 10.98 94.0875 8.656C95.4035 6.304 97.2235 4.456 99.5475 3.112C101.871 1.74 104.517 1.05399 107.485 1.05399C109.865 1.05399 111.909 1.43199 113.617 2.18799C115.353 2.916 116.893 4.078 118.237 5.674L114.079 9.286C112.315 7.438 110.117 6.514 107.485 6.514C105.637 6.514 104.013 6.962 102.613 7.858C101.213 8.726 100.135 9.916 99.3795 11.428C98.6235 12.912 98.2455 14.55 98.2455 16.342C98.2455 18.134 98.6235 19.772 99.3795 21.256C100.163 22.74 101.255 23.916 102.655 24.784C104.083 25.652 105.735 26.086 107.611 26.086C110.355 26.086 112.595 25.134 114.331 23.23L118.615 26.884C117.439 28.312 115.899 29.446 113.995 30.286C112.119 31.126 109.949 31.546 107.485 31.546Z" fill="black"/>
<path d="M130.158 31.546C127.946 31.546 125.958 31.042 124.194 30.034C122.43 28.998 121.044 27.612 120.036 25.876C119.028 24.112 118.524 22.194 118.524 20.122C118.524 18.05 119.028 16.132 120.036 14.368C121.044 12.604 122.43 11.218 124.194 10.21C125.958 9.174 127.946 8.656 130.158 8.656C132.37 8.656 134.358 9.174 136.122 10.21C137.886 11.218 139.272 12.604 140.28 14.368C141.288 16.132 141.792 18.05 141.792 20.122C141.792 22.194 141.288 24.112 140.28 25.876C139.272 27.612 137.886 28.998 136.122 30.034C134.358 31.042 132.37 31.546 130.158 31.546ZM124.194 20.122C124.194 21.27 124.432 22.32 124.908 23.272C125.412 24.224 126.112 24.98 127.008 25.54C127.932 26.1 128.982 26.38 130.158 26.38C131.334 26.38 132.37 26.1 133.266 25.54C134.19 24.98 134.89 24.224 135.366 23.272C135.87 22.32 136.122 21.27 136.122 20.122C136.122 18.974 135.87 17.924 135.366 16.972C134.862 16.02 134.162 15.264 133.266 14.704C132.37 14.116 131.334 13.822 130.158 13.822C128.982 13.822 127.946 14.116 127.05 14.704C126.154 15.264 125.454 16.02 124.95 16.972C124.446 17.924 124.194 18.974 124.194 20.122Z" fill="black"/>
<path d="M154.05 31.546C152.09 31.546 150.284 31.042 148.632 30.034C146.98 28.998 145.664 27.612 144.684 25.876C143.732 24.14 143.256 22.236 143.256 20.164C143.256 18.092 143.732 16.188 144.684 14.452C145.664 12.688 146.98 11.288 148.632 10.252C150.284 9.216 152.09 8.698 154.05 8.698C155.842 8.698 157.284 9.034 158.376 9.706C159.468 10.35 160.322 11.288 160.938 12.52V0.339996H166.608V31H161.106V27.43C160.462 28.746 159.58 29.768 158.46 30.496C157.368 31.196 155.898 31.546 154.05 31.546ZM148.926 20.122C148.926 21.242 149.178 22.292 149.682 23.272C150.214 24.224 150.928 24.994 151.824 25.582C152.748 26.142 153.798 26.422 154.974 26.422C156.178 26.422 157.242 26.142 158.166 25.582C159.118 25.022 159.846 24.266 160.35 23.314C160.854 22.362 161.106 21.312 161.106 20.164C161.106 19.016 160.854 17.966 160.35 17.014C159.846 16.034 159.118 15.264 158.166 14.704C157.242 14.116 156.178 13.822 154.974 13.822C153.798 13.822 152.748 14.116 151.824 14.704C150.9 15.264 150.186 16.02 149.682 16.972C149.178 17.924 148.926 18.974 148.926 20.122Z" fill="black"/>
<path d="M180.435 31.546C178.223 31.546 176.263 31.042 174.555 30.034C172.847 28.998 171.517 27.612 170.565 25.876C169.613 24.14 169.137 22.222 169.137 20.122C169.137 18.05 169.627 16.132 170.607 14.368C171.587 12.604 172.931 11.204 174.639 10.168C176.375 9.132 178.307 8.614 180.435 8.614C182.563 8.614 184.467 9.132 186.147 10.168C187.855 11.204 189.171 12.604 190.095 14.368C191.047 16.104 191.523 18.022 191.523 20.122C191.523 20.822 191.467 21.494 191.355 22.138H175.017C175.353 23.454 175.983 24.518 176.907 25.33C177.859 26.114 179.035 26.506 180.435 26.506C181.611 26.506 182.661 26.24 183.585 25.708C184.509 25.148 185.237 24.434 185.769 23.566L190.179 26.884C189.283 28.284 187.967 29.418 186.231 30.286C184.495 31.126 182.563 31.546 180.435 31.546ZM185.811 17.896C185.475 16.636 184.817 15.586 183.837 14.746C182.857 13.906 181.695 13.486 180.351 13.486C179.035 13.486 177.887 13.892 176.907 14.704C175.955 15.516 175.325 16.58 175.017 17.896H185.811Z" fill="black"/>
<path d="M200.873 31.546C197.205 31.546 194.181 30.272 191.801 27.724L195.623 24.238C197.219 26.03 198.927 26.926 200.747 26.926C201.699 26.926 202.441 26.716 202.973 26.296C203.505 25.876 203.771 25.33 203.771 24.658C203.771 24.042 203.505 23.566 202.973 23.23C202.469 22.866 201.405 22.488 199.781 22.096C197.121 21.452 195.329 20.57 194.405 19.45C193.509 18.33 193.061 16.944 193.061 15.292C193.061 13.332 193.789 11.736 195.245 10.504C196.701 9.24399 198.689 8.614 201.209 8.614C203.029 8.614 204.555 8.89399 205.787 9.454C207.047 10.014 208.223 10.994 209.315 12.394L205.199 15.544C204.219 13.976 202.931 13.192 201.335 13.192C200.523 13.192 199.865 13.36 199.361 13.696C198.857 14.004 198.605 14.48 198.605 15.124C198.605 15.572 198.787 15.964 199.151 16.3C199.543 16.608 200.341 16.916 201.545 17.224C204.541 18.008 206.585 18.974 207.677 20.122C208.797 21.27 209.357 22.726 209.357 24.49C209.357 25.806 208.979 27.01 208.223 28.102C207.495 29.166 206.487 30.006 205.199 30.622C203.911 31.238 202.469 31.546 200.873 31.546Z" fill="black"/>
<path d="M0.100006 1.6H5.98001V25.708H16.942V31H0.100006V1.6Z" fill="#C322D4"/>
<path d="M28.3371 31.546C26.3771 31.546 24.5711 31.042 22.9191 30.034C21.2671 28.998 19.9511 27.612 18.9711 25.876C18.0191 24.14 17.5431 22.236 17.5431 20.164C17.5431 18.092 18.0191 16.188 18.9711 14.452C19.9511 12.688 21.2671 11.288 22.9191 10.252C24.5711 9.216 26.3771 8.698 28.3371 8.698C30.1291 8.698 31.5711 9.034 32.6631 9.706C33.7831 10.378 34.6511 11.344 35.2671 12.604V9.16H40.8951V31H35.3931V27.43C34.7491 28.746 33.8671 29.768 32.7471 30.496C31.6551 31.196 30.1851 31.546 28.3371 31.546ZM23.2131 20.122C23.2131 21.242 23.4651 22.292 23.9691 23.272C24.5011 24.224 25.2151 24.994 26.1111 25.582C27.0351 26.142 28.0851 26.422 29.2611 26.422C30.4651 26.422 31.5291 26.142 32.4531 25.582C33.4051 25.022 34.1331 24.266 34.6371 23.314C35.1411 22.362 35.3931 21.312 35.3931 20.164C35.3931 19.016 35.1411 17.966 34.6371 17.014C34.1331 16.034 33.4051 15.264 32.4531 14.704C31.5291 14.116 30.4651 13.822 29.2611 13.822C28.0851 13.822 27.0351 14.116 26.1111 14.704C25.1871 15.264 24.4731 16.02 23.9691 16.972C23.4651 17.924 23.2131 18.974 23.2131 20.122Z" fill="#C322D4"/>
<path d="M54.218 31.546C52.258 31.546 50.452 31.042 48.8 30.034C47.148 28.998 45.832 27.612 44.852 25.876C43.9 24.14 43.424 22.236 43.424 20.164C43.424 18.092 43.9 16.188 44.852 14.452C45.832 12.688 47.148 11.288 48.8 10.252C50.452 9.216 52.258 8.698 54.218 8.698C56.01 8.698 57.452 9.034 58.544 9.706C59.636 10.35 60.49 11.288 61.106 12.52V0.339996H66.776V31H61.274V27.43C60.63 28.746 59.748 29.768 58.628 30.496C57.536 31.196 56.066 31.546 54.218 31.546ZM49.094 20.122C49.094 21.242 49.346 22.292 49.85 23.272C50.382 24.224 51.096 24.994 51.992 25.582C52.916 26.142 53.966 26.422 55.142 26.422C56.346 26.422 57.41 26.142 58.334 25.582C59.286 25.022 60.014 24.266 60.518 23.314C61.022 22.362 61.274 21.312 61.274 20.164C61.274 19.016 61.022 17.966 60.518 17.014C60.014 16.034 59.286 15.264 58.334 14.704C57.41 14.116 56.346 13.822 55.142 13.822C53.966 13.822 52.916 14.116 51.992 14.704C51.068 15.264 50.354 16.02 49.85 16.972C49.346 17.924 49.094 18.974 49.094 20.122Z" fill="#C322D4"/>
<path d="M72.3708 39.778C70.8028 39.778 69.5429 39.638 68.5909 39.358L69.4309 33.94C70.2149 34.136 71.0689 34.234 71.9929 34.234C73.0289 34.234 73.8969 33.926 74.5969 33.31C75.3249 32.722 75.8568 31.924 76.1928 30.916L76.4869 29.992L67.8349 9.16H74.6809L78.9229 21.634C79.3149 22.698 79.6229 23.86 79.8469 25.12C80.0709 23.86 80.3789 22.698 80.7709 21.634L85.0129 9.16H91.7328L82.0729 32.386C81.0649 34.766 79.7909 36.586 78.2509 37.846C76.7389 39.134 74.7788 39.778 72.3708 39.778Z" fill="#C322D4"/>
</svg>
