<svg width="99" height="23" viewBox="0 0 99 23" fill="none" xmlns="http://www.w3.org/2000/svg">
<path d="M0 0.688435H5.09902L8.66834 13.0803C9.13575 14.7283 9.4332 15.98 9.56067 16.8354C9.73064 15.5628 10.0387 14.3111 10.4849 13.0803L14.9146 0.688435H18.9301L23.3599 13.0803C23.8273 14.3528 24.1566 15.6045 24.3478 16.8354C24.4753 15.834 24.7515 14.5823 25.1764 13.0803L28.7458 0.688435H33.8448L26.3875 22.5932H22.372L17.8466 10.2327C17.4217 9.0644 17.1136 7.86485 16.9224 6.63401C16.7312 7.86485 16.4231 9.0644 15.9982 10.2327L11.4728 22.5932H7.45732L0 0.688435Z" fill="#0F1728"/>
<path d="M52.8319 23C50.6648 23 48.689 22.4993 46.9043 21.498C45.1409 20.4757 43.7493 19.0989 42.7295 17.3673C41.7097 15.6358 41.1998 13.7374 41.1998 11.6721C41.1998 9.60681 41.7097 7.70839 42.7295 5.97687C43.7493 4.22449 45.1409 2.83719 46.9043 1.81497C48.689 0.792744 50.6648 0.281632 52.8319 0.281632C54.999 0.281632 56.9643 0.792744 58.7277 1.81497C60.4911 2.83719 61.8721 4.22449 62.8706 5.97687C63.8904 7.70839 64.4003 9.60681 64.4003 11.6721C64.4003 13.7374 63.8904 15.6358 62.8706 17.3673C61.8721 19.0989 60.4911 20.4757 58.7277 21.498C56.9643 22.4993 54.999 23 52.8319 23ZM45.8208 11.6721C45.8208 13.0073 46.1076 14.2277 46.6812 15.3333C47.2549 16.439 48.0728 17.3152 49.1351 17.9619C50.1974 18.6086 51.4297 18.932 52.8319 18.932C54.2342 18.932 55.4558 18.6086 56.4968 17.9619C57.5591 17.3152 58.3665 16.439 58.9189 15.3333C59.4925 14.2277 59.7793 13.0073 59.7793 11.6721C59.7793 10.337 59.4925 9.11655 58.9189 8.01088C58.3665 6.88435 57.5591 5.99773 56.4968 5.35102C55.4558 4.68345 54.2342 4.34966 52.8319 4.34966C51.4297 4.34966 50.1974 4.68345 49.1351 5.35102C48.0728 5.99773 47.2549 6.88435 46.6812 8.01088C46.1076 9.11655 45.8208 10.337 45.8208 11.6721Z" fill="#0F1728"/>
<path d="M73.4444 23C71.596 23 69.9388 22.6245 68.4728 21.8735C67.0281 21.1016 65.8383 19.902 64.9035 18.2748L68.7597 15.8653C69.312 16.9501 70.0132 17.7637 70.863 18.3061C71.7341 18.8277 72.6795 19.0884 73.6993 19.0884C74.7191 19.0884 75.5265 18.859 76.1214 18.4C76.7375 17.941 77.0456 17.3361 77.0456 16.585C77.0456 15.8966 76.8225 15.3333 76.3763 14.8952C75.9301 14.4571 75.3565 14.1129 74.6554 13.8626C73.9755 13.5914 73.0726 13.3098 71.9465 13.0177C70.1619 12.5587 68.7703 11.8181 67.7717 10.7959C66.7944 9.7737 66.3057 8.45941 66.3057 6.85306C66.3057 5.55964 66.635 4.42268 67.2937 3.44218C67.9523 2.44082 68.8765 1.66893 70.0663 1.12653C71.256 0.584128 72.6264 0.312926 74.1774 0.312926C75.8558 0.312926 77.2793 0.657143 78.4478 1.34558C79.6376 2.03401 80.668 3.04581 81.5391 4.38095L77.7148 6.6966C77.1624 5.82041 76.5994 5.19456 76.0258 4.81905C75.4521 4.42268 74.7616 4.22449 73.9543 4.22449C73.0407 4.22449 72.2971 4.44354 71.7235 4.88163C71.1498 5.31973 70.863 5.90386 70.863 6.63401C70.863 7.36417 71.1498 7.91701 71.7235 8.29252C72.2971 8.64717 73.1894 9.01225 74.4004 9.38776C75.8877 9.84671 77.0774 10.2744 77.9698 10.6707C78.8621 11.0671 79.6907 11.7347 80.4555 12.6735C81.2204 13.5914 81.6028 14.8118 81.6028 16.3347C81.6028 17.649 81.2735 18.8172 80.6149 19.8395C79.9563 20.8408 79.0108 21.6231 77.7785 22.1864C76.5463 22.7288 75.1016 23 73.4444 23Z" fill="#0F1728"/>
<path d="M90.8416 23C88.9932 23 87.336 22.6245 85.87 21.8735C84.4253 21.1016 83.2355 19.902 82.3007 18.2748L86.1568 15.8653C86.7092 16.9501 87.4103 17.7637 88.2602 18.3061C89.1313 18.8277 90.0767 19.0884 91.0965 19.0884C92.1163 19.0884 92.9237 18.859 93.5185 18.4C94.1347 17.941 94.4427 17.3361 94.4427 16.585C94.4427 15.8966 94.2197 15.3333 93.7735 14.8952C93.3273 14.4571 92.7537 14.1129 92.0526 13.8626C91.3727 13.5914 90.4698 13.3098 89.3437 13.0177C87.5591 12.5587 86.1675 11.8181 85.1689 10.7959C84.1916 9.7737 83.7029 8.45941 83.7029 6.85306C83.7029 5.55964 84.0322 4.42268 84.6909 3.44218C85.3495 2.44082 86.2737 1.66893 87.4635 1.12653C88.6532 0.584128 90.0236 0.312926 91.5745 0.312926C93.253 0.312926 94.6764 0.657143 95.845 1.34558C97.0347 2.03401 98.0652 3.04581 98.9363 4.38095L95.112 6.6966C94.5596 5.82041 93.9966 5.19456 93.4229 4.81905C92.8493 4.42268 92.1588 4.22449 91.3515 4.22449C90.4379 4.22449 89.6943 4.44354 89.1206 4.88163C88.547 5.31973 88.2602 5.90386 88.2602 6.63401C88.2602 7.36417 88.547 7.91701 89.1206 8.29252C89.6943 8.64717 90.5866 9.01225 91.7976 9.38776C93.2848 9.84671 94.4746 10.2744 95.3669 10.6707C96.2593 11.0671 97.0879 11.7347 97.8527 12.6735C98.6176 13.5914 99 14.8118 99 16.3347C99 17.649 98.6707 18.8172 98.0121 19.8395C97.3534 20.8408 96.408 21.6231 95.1757 22.1864C93.9435 22.7288 92.4988 23 90.8416 23Z" fill="#0F1728"/>
<path d="M34.831 6.32109H39.1333V22.5932H34.831V6.32109ZM34.3848 2.47211C34.3848 1.78367 34.6291 1.19955 35.1178 0.719728C35.6277 0.239909 36.2438 0 36.9662 0C37.7098 0 38.3259 0.239909 38.8146 0.719728C39.3032 1.19955 39.5476 1.78367 39.5476 2.47211C39.5476 3.18141 39.3032 3.77596 38.8146 4.25578C38.3259 4.7356 37.7098 4.97551 36.9662 4.97551C36.2438 4.97551 35.6277 4.7356 35.1178 4.25578C34.6291 3.7551 34.3848 3.16055 34.3848 2.47211Z" fill="#0F1728"/>
</svg>
