<svg width="645" height="121" viewBox="0 0 645 121" fill="none" xmlns="http://www.w3.org/2000/svg">
<path d="M377.221 2.53387C373.35 4.46962 371.027 6.79252 369.22 10.664C366.639 15.826 366.51 18.407 366.51 55.0572V94.0303H373.608H380.706V71.4465V48.8628H386.513H392.32V41.8941V34.7964L386.9 34.4092L381.351 34.0221L381.609 27.1824C381.738 23.569 382.512 19.3104 383.287 17.8908C385.093 14.4065 390.255 13.3741 396.192 15.1808L401.225 16.7294L401.612 51.96C401.999 87.3197 401.999 87.3197 405.096 90.675C409.097 94.9336 415.291 96.0951 422.647 94.0303C430.39 91.8364 431.293 90.5459 429.358 84.0934C427.938 79.4476 427.551 79.0605 424.841 79.9638C423.034 80.7381 420.84 80.6091 419.292 79.8348C416.969 78.5443 416.84 76.6085 416.84 41.1198V3.69532H410.129C406.387 3.69532 400.967 2.79197 398.127 1.75957C390.772 -0.821425 383.545 -0.563325 377.221 2.53387Z" fill="#424143"/>
<path d="M30.7222 5.63112C13.6876 12.0836 0.911647 29.7635 0.782597 47.1852C0.653548 58.1545 2.71835 60.3483 11.2356 58.1545C18.2043 56.3478 33.9484 47.1852 44.4015 39.0551C56.5322 29.5054 60.2746 16.6004 53.1769 8.72832C50.0797 5.24397 48.402 4.46967 42.4657 4.21157C38.4652 3.95347 33.4322 4.46967 30.7222 5.63112Z" fill="#424143"/>
<path d="M117.667 33.4895C111.214 16.4549 93.5345 3.67897 76.1128 3.54992C65.1435 3.42087 62.9497 5.48567 65.1435 14.003C66.9502 20.9717 76.1128 36.7158 84.2429 47.1688C93.7926 59.2995 106.698 63.0419 114.57 55.9442C118.054 52.847 118.828 51.1694 119.086 45.2331C119.345 41.2325 118.828 36.1996 117.667 33.4895Z" fill="#424143"/>
<path d="M88 119.061C117 119.061 118.221 119.061 118.221 75.983C118.221 65.013 116.253 62.8248 107.741 65.04C100.777 66.8641 85.0556 76.0661 74.6229 84.2223C62.5161 93.8024 58.806 106.717 65.9234 114.571C69.0293 118.048 70.7089 118.818 76.6458 119.061C88 119.061 77.5 119.061 88 119.061Z" fill="#424143"/>
<path d="M180.807 35.0545C168.418 39.8293 160.934 51.4438 160.934 65.6393C161.063 79.1895 166.354 88.4811 176.549 92.9979C184.034 96.3532 195.906 95.5789 201.455 91.5783C205.198 88.7392 205.198 88.7392 205.198 91.4493C205.198 93.7722 205.972 94.0303 212.941 94.0303H220.684L220.426 68.4784L220.038 43.0555L211.392 38.6678C201.455 33.764 188.421 32.2154 180.807 35.0545ZM201.842 48.8628C205.198 50.0242 205.198 50.2823 205.198 63.0583V75.9633L201.068 78.5443C193.067 83.4482 182.614 80.8672 178.613 73.1242C177.194 70.2851 176.678 67.0588 177.194 62.5421C177.71 57.251 178.484 55.4443 182.485 51.8309C186.227 48.3466 188.163 47.5723 192.809 47.5723C196.035 47.5723 200.036 48.0885 201.842 48.8628Z" fill="#424143"/>
<path d="M251.01 35.8287C244.945 39.055 245.203 39.055 245.203 36.603C245.203 35.0544 243.526 34.6673 237.46 34.6673H229.717V77.2538V119.84H237.46H245.203V106.419V92.9979L249.978 94.2884C260.818 97.2565 274.756 93.1269 282.241 84.4806C287.532 78.5443 289.596 71.9627 289.596 61.7678C289.596 51.7019 285.983 44.217 278.369 38.0226C274.239 34.6673 272.175 34.022 264.819 33.6349C257.979 33.2477 255.14 33.7639 251.01 35.8287ZM269.336 52.089C273.723 56.4767 273.852 56.9929 273.336 64.4778C272.82 70.9303 272.175 72.8661 268.819 76.0923C264.303 80.7381 256.818 82.1577 249.849 79.8348L245.203 78.2862V65.5102V52.7343L249.462 50.1533C251.914 48.6047 255.914 47.5723 259.27 47.5723C263.915 47.5723 265.593 48.3466 269.336 52.089Z" fill="#424143"/>
<path d="M318.116 35.8287C312.051 39.055 312.309 39.055 312.309 36.603C312.309 35.0544 310.632 34.6673 304.566 34.6673H296.823V77.2538V119.84H304.566H312.309V106.419V92.9979L317.084 94.2884C323.537 96.0951 333.99 94.8046 340.184 91.7074C351.024 86.1582 356.444 76.6085 356.573 63.0583C356.702 52.6052 352.831 43.8298 345.475 38.0226C338.894 32.7316 326.118 31.8282 318.116 35.8287ZM335.796 51.3147C339.797 54.9281 340.055 55.7024 340.055 63.5745C340.055 71.3175 339.668 72.3499 336.054 76.0923C331.409 80.7381 324.053 82.1577 316.955 79.8348L312.309 78.2862V65.5102V52.7343L316.568 50.1533C322.891 46.2818 330.634 46.6689 335.796 51.3147Z" fill="#424143"/>
<path d="M449.102 36.0868C438.391 40.9907 432.713 48.9918 431.422 61.1225C428.712 87.8359 459.555 104.741 482.913 89.5135C492.85 82.932 497.883 67.446 494.141 54.4119C491.947 46.5399 482.655 36.7321 475.428 34.7963C467.298 32.4734 455.684 33.1187 449.102 36.0868ZM473.493 50.9276C481.881 57.8963 481.365 72.2208 472.46 78.1571C461.491 85.513 447.812 77.899 447.812 64.3488C447.812 53.7667 453.619 47.5723 463.427 47.5723C468.072 47.5723 470.524 48.3466 473.493 50.9276Z" fill="#424143"/>
<path d="M495.947 35.5706C496.334 36.2159 500.722 49.508 505.755 65.3812L515.047 94.1593L521.628 93.7722L528.21 93.385L535.437 74.5437L542.663 55.7024L549.89 74.5437L557.117 93.385L564.086 93.7722L571.054 94.1593L578.023 71.4465C581.895 59.0577 585.508 48.8628 585.895 48.8628C586.282 48.8628 591.444 59.0577 597.122 71.4465L607.576 93.9012L604.995 99.1923C602.284 104.612 598.542 106.548 593.251 105.129C590.67 104.483 590.025 105.258 588.218 110.162L586.024 115.969L589.767 117.905C594.671 120.486 602.026 120.356 606.543 117.775C613.383 113.646 616.093 108.097 634.805 60.4773L645 34.6673H636.354H627.707L620.997 54.9281C617.383 66.1555 614.286 74.5437 614.286 73.6404C614.286 72.737 610.673 63.5745 606.285 53.2505L598.413 34.6673H586.411C576.087 34.6673 574.41 34.9254 573.764 36.8611C572.861 40.0874 567.054 61.2516 565.247 68.0912L563.828 73.6404L557.117 54.1538L550.406 34.5382L543.309 34.9254L536.211 35.3125L529.758 54.2829L523.306 73.2532L520.338 62.6711C518.66 56.8639 516.208 48.2175 514.66 43.3136L512.079 34.6673H503.69C499.174 34.6673 495.689 35.0544 495.947 35.5706Z" fill="#424143"/>
<path d="M6.71888 66.4136C-4.50846 74.1566 -0.636964 93.7722 14.72 107.968C23.2373 115.711 33.6903 120.098 44.0143 120.356C52.2735 120.486 55.4998 118.55 55.4998 113.517C55.4998 106.935 43.6272 85.642 33.3032 73.8985C25.6892 65.2521 13.3004 61.7678 6.71888 66.4136Z" fill="#424143"/>
</svg>
